<svg width="12" height="6" viewBox="0 0 12 6" fill="none" xmlns="http://www.w3.org/2000/svg">
<path d="M1 3.4C0.779086 3.4 0.6 3.22091 0.6 3C0.6 2.77909 0.779086 2.6 1 2.6V3.4ZM11.2828 2.71716C11.4391 2.87337 11.4391 3.12663 11.2828 3.28284L8.73726 5.82843C8.58105 5.98464 8.32778 5.98464 8.17157 5.82843C8.01536 5.67222 8.01536 5.41895 8.17157 5.26274L10.4343 3L8.17157 0.737258C8.01536 0.581049 8.01536 0.327783 8.17157 0.171573C8.32778 0.0153631 8.58105 0.0153631 8.73726 0.171573L11.2828 2.71716ZM1 2.6L11 2.6V3.4L1 3.4V2.6Z" fill="#16355B"/>
</svg>
