<svg width="16" height="16" viewBox="0 0 16 16" fill="none" xmlns="http://www.w3.org/2000/svg">
<path d="M10.625 0.615885C10.625 0.276042 10.9609 0 11.3763 0C11.7917 0 12.1276 0.276042 12.1276 0.615885V3.3138C12.1276 3.65365 11.7917 3.92969 11.3763 3.92969C10.9609 3.92969 10.625 3.65365 10.625 3.3138V0.615885ZM8.15104 7.98177L8.93229 9.79297L10.8945 9.96875C10.9152 9.97038 10.9353 9.97611 10.9538 9.98561C10.9722 9.9951 10.9885 10.0082 11.0019 10.024C11.0152 10.0399 11.0252 10.0583 11.0314 10.0781C11.0376 10.0979 11.0397 10.1187 11.0378 10.1393C11.0363 10.1596 11.0308 10.1793 11.0216 10.1974C11.0125 10.2155 10.9998 10.2316 10.9844 10.2448L9.4987 11.5469L9.9375 13.4674C9.94231 13.4876 9.94304 13.5086 9.93967 13.529C9.93629 13.5495 9.92887 13.5691 9.91784 13.5867C9.90681 13.6043 9.89239 13.6195 9.87543 13.6314C9.85846 13.6434 9.83928 13.6518 9.81901 13.6562C9.77689 13.6651 9.73298 13.6571 9.69662 13.6341L8.00391 12.6263L6.3112 13.6393C6.27521 13.6604 6.23236 13.6665 6.19192 13.6563C6.15148 13.646 6.11668 13.6203 6.09505 13.5846C6.07381 13.5495 6.06726 13.5074 6.07682 13.4674L6.51042 11.5417L5.02604 10.2396C4.99728 10.2123 4.97974 10.1753 4.97685 10.1358C4.97396 10.0963 4.98593 10.0572 5.01042 10.026C5.03953 9.99476 5.07971 9.97607 5.1224 9.97396L7.07552 9.79948L7.85677 7.98568C7.86487 7.96659 7.87665 7.94929 7.89144 7.93476C7.90624 7.92024 7.92375 7.90878 7.94299 7.90103C7.96222 7.89329 7.98279 7.88942 8.00353 7.88965C8.02426 7.88987 8.04474 7.89419 8.0638 7.90234C8.08277 7.90986 8.10004 7.92111 8.11458 7.93542C8.12911 7.94974 8.14063 7.96683 8.14844 7.98568L8.15104 7.98177ZM3.85547 0.615885C3.85547 0.276042 4.19141 0 4.60677 0C5.02214 0 5.35807 0.276042 5.35807 0.615885V3.3138C5.35807 3.65365 5.02214 3.92969 4.60677 3.92969C4.19141 3.92969 3.85547 3.65365 3.85547 3.3138V0.615885ZM0.833333 5.90104H15.1654V2.79557C15.1643 2.69464 15.1241 2.59804 15.0534 2.52604C15.0181 2.49054 14.976 2.46238 14.9298 2.44316C14.8835 2.42394 14.8339 2.41405 14.7839 2.41406H13.4115C13.3567 2.41406 13.3026 2.40329 13.252 2.38235C13.2015 2.36141 13.1555 2.33071 13.1168 2.29202C13.0781 2.25333 13.0474 2.2074 13.0265 2.15685C13.0056 2.10629 12.9948 2.05211 12.9948 1.9974C12.9948 1.94268 13.0056 1.8885 13.0265 1.83794C13.0474 1.78739 13.0781 1.74146 13.1168 1.70277C13.1555 1.66408 13.2015 1.63339 13.252 1.61245C13.3026 1.59151 13.3567 1.58073 13.4115 1.58073H14.7852C15.107 1.58176 15.4154 1.71008 15.643 1.93769C15.8706 2.16529 15.999 2.47369 16 2.79557V14.7852C15.999 15.107 15.8706 15.4154 15.643 15.643C15.4154 15.8706 15.107 15.999 14.7852 16H1.21484C0.892739 15.999 0.584141 15.8705 0.356499 15.6426C0.128858 15.4147 0.000686609 15.106 0 14.7839L0 2.79557C0.00103002 2.47369 0.129353 2.16529 0.356957 1.93769C0.584562 1.71008 0.892964 1.58176 1.21484 1.58073H2.68229C2.73701 1.58073 2.79119 1.59151 2.84174 1.61245C2.8923 1.63339 2.93823 1.66408 2.97692 1.70277C3.01561 1.74146 3.0463 1.78739 3.06724 1.83794C3.08818 1.8885 3.09896 1.94268 3.09896 1.9974C3.09896 2.05211 3.08818 2.10629 3.06724 2.15685C3.0463 2.2074 3.01561 2.25333 2.97692 2.29202C2.93823 2.33071 2.8923 2.36141 2.84174 2.38235C2.79119 2.40329 2.73701 2.41406 2.68229 2.41406H1.21484C1.11391 2.41516 1.01731 2.45529 0.945312 2.52604C0.909814 2.56138 0.881647 2.60338 0.86243 2.64963C0.843213 2.69589 0.833325 2.74549 0.833333 2.79557V5.90104ZM15.1654 6.73568H0.833333V14.7839C0.834432 14.8848 0.874563 14.9814 0.945312 15.0534C0.980649 15.0889 1.02265 15.1171 1.06891 15.1363C1.11516 15.1555 1.16476 15.1654 1.21484 15.1654H14.7839C14.8848 15.1643 14.9814 15.1241 15.0534 15.0534C15.0889 15.0181 15.1171 14.976 15.1363 14.9298C15.1555 14.8835 15.1654 14.8339 15.1654 14.7839V6.73568ZM6.57161 2.41406C6.46111 2.41406 6.35513 2.37016 6.27699 2.29202C6.19885 2.21388 6.15495 2.1079 6.15495 1.9974C6.15495 1.88689 6.19885 1.78091 6.27699 1.70277C6.35513 1.62463 6.46111 1.58073 6.57161 1.58073H9.36328C9.47379 1.58073 9.57977 1.62463 9.65791 1.70277C9.73605 1.78091 9.77995 1.88689 9.77995 1.9974C9.77995 2.1079 9.73605 2.21388 9.65791 2.29202C9.57977 2.37016 9.47379 2.41406 9.36328 2.41406H6.57161Z" fill="white"/>
</svg>
