<svg width="87" height="111" viewBox="0 0 87 111" fill="none" xmlns="http://www.w3.org/2000/svg">
<path d="M43.5121 54.9365C46.1322 54.9365 48.3711 53.9698 50.2289 52.0363C52.0867 50.1029 53.0156 47.7787 53.0156 45.0636C53.0156 42.3486 52.0827 40.0286 50.2168 38.1034C48.351 36.1783 46.1081 35.2157 43.4879 35.2157C40.8678 35.2157 38.6289 36.1825 36.7711 38.116C34.9133 40.0494 33.9844 42.3736 33.9844 45.0887C33.9844 47.8037 34.9173 50.1237 36.7832 52.0489C38.649 53.974 40.8919 54.9365 43.5121 54.9365ZM43.5 101.562C55.5531 90.1992 64.457 79.8928 70.2117 70.6428C75.9664 61.3928 78.8437 53.2462 78.8437 46.203C78.8437 35.1415 75.4321 26.0843 68.6087 19.0313C61.7855 11.9783 53.4159 8.45178 43.5 8.45178C33.5841 8.45178 25.2145 11.9783 18.3913 19.0313C11.5679 26.0843 8.15625 35.1415 8.15625 46.203C8.15625 53.2462 11.1016 61.3928 16.9922 70.6428C22.8828 79.8928 31.7187 90.1992 43.5 101.562ZM43.568 111C42.9789 111 42.4125 110.906 41.8687 110.718C41.325 110.53 40.8266 110.249 40.3734 109.873C26.8703 97.5711 16.7656 86.1661 10.0594 75.6583C3.35313 65.1504 0 55.332 0 46.203C0 32.1168 4.37266 20.8947 13.118 12.5368C21.8633 4.17893 31.9906 0 43.5 0C55.0094 0 65.1367 4.17893 73.882 12.5368C82.6273 20.8947 87 32.1168 87 46.203C87 55.3122 83.6469 65.1256 76.9406 75.6434C70.2344 86.1612 60.1297 97.5711 46.6266 109.873C46.1734 110.249 45.6977 110.53 45.1992 110.718C44.7008 110.906 44.157 111 43.568 111Z" fill="#F4F4F4"/>
</svg>
