<svg width="108" height="120" viewBox="0 0 108 120" fill="none" xmlns="http://www.w3.org/2000/svg">
<path d="M9 120C6.6 120 4.5 119.1 2.7 117.3C0.9 115.5 0 113.4 0 111V18C0 15.6 0.9 13.5 2.7 11.7C4.5 9.9 6.6 9 9 9H18.75V4.8C18.75 3.44 19.21 2.3 20.13 1.38C21.05 0.46 22.19 0 23.55 0C24.9525 0 26.1282 0.46 27.077 1.38C28.0257 2.3 28.5 3.44 28.5 4.8V9H79.5V4.8C79.5 3.44 79.96 2.3 80.88 1.38C81.8 0.46 82.94 0 84.3 0C85.7025 0 86.8782 0.46 87.827 1.38C88.7757 2.3 89.25 3.44 89.25 4.8V9H99C101.4 9 103.5 9.9 105.3 11.7C107.1 13.5 108 15.6 108 18V111C108 113.4 107.1 115.5 105.3 117.3C103.5 119.1 101.4 120 99 120H9ZM9 111H99V46.5H9V111ZM9 37.5H99V18H9V37.5ZM54 72C52.3 72 50.875 71.425 49.725 70.275C48.575 69.125 48 67.7 48 66C48 64.3 48.575 62.875 49.725 61.725C50.875 60.575 52.3 60 54 60C55.7 60 57.125 60.575 58.275 61.725C59.425 62.875 60 64.3 60 66C60 67.7 59.425 69.125 58.275 70.275C57.125 71.425 55.7 72 54 72ZM30 72C28.3 72 26.875 71.425 25.725 70.275C24.575 69.125 24 67.7 24 66C24 64.3 24.575 62.875 25.725 61.725C26.875 60.575 28.3 60 30 60C31.7 60 33.125 60.575 34.275 61.725C35.425 62.875 36 64.3 36 66C36 67.7 35.425 69.125 34.275 70.275C33.125 71.425 31.7 72 30 72ZM78 72C76.3 72 74.875 71.425 73.725 70.275C72.575 69.125 72 67.7 72 66C72 64.3 72.575 62.875 73.725 61.725C74.875 60.575 76.3 60 78 60C79.7 60 81.125 60.575 82.275 61.725C83.425 62.875 84 64.3 84 66C84 67.7 83.425 69.125 82.275 70.275C81.125 71.425 79.7 72 78 72ZM54 96C52.3 96 50.875 95.425 49.725 94.275C48.575 93.125 48 91.7 48 90C48 88.3 48.575 86.875 49.725 85.725C50.875 84.575 52.3 84 54 84C55.7 84 57.125 84.575 58.275 85.725C59.425 86.875 60 88.3 60 90C60 91.7 59.425 93.125 58.275 94.275C57.125 95.425 55.7 96 54 96ZM30 96C28.3 96 26.875 95.425 25.725 94.275C24.575 93.125 24 91.7 24 90C24 88.3 24.575 86.875 25.725 85.725C26.875 84.575 28.3 84 30 84C31.7 84 33.125 84.575 34.275 85.725C35.425 86.875 36 88.3 36 90C36 91.7 35.425 93.125 34.275 94.275C33.125 95.425 31.7 96 30 96ZM78 96C76.3 96 74.875 95.425 73.725 94.275C72.575 93.125 72 91.7 72 90C72 88.3 72.575 86.875 73.725 85.725C74.875 84.575 76.3 84 78 84C79.7 84 81.125 84.575 82.275 85.725C83.425 86.875 84 88.3 84 90C84 91.7 83.425 93.125 82.275 94.275C81.125 95.425 79.7 96 78 96Z" fill="#F4F4F4"/>
</svg>
