<svg width="11" height="10" viewBox="0 0 11 10" fill="none" xmlns="http://www.w3.org/2000/svg">
<path d="M0.825 10C0.605 10 0.4125 9.92105 0.2475 9.76316C0.0825 9.60526 0 9.42105 0 9.21053V2.89474C0 2.68421 0.0825 2.5 0.2475 2.34211C0.4125 2.18421 0.605 2.10526 0.825 2.10526H3.3V0.789474C3.3 0.578947 3.3825 0.394737 3.5475 0.236842C3.7125 0.0789474 3.905 0 4.125 0H6.875C7.095 0 7.2875 0.0789474 7.4525 0.236842C7.6175 0.394737 7.7 0.578947 7.7 0.789474V2.10526H10.175C10.395 2.10526 10.5875 2.18421 10.7525 2.34211C10.9175 2.5 11 2.68421 11 2.89474V9.21053C11 9.42105 10.9175 9.60526 10.7525 9.76316C10.5875 9.92105 10.395 10 10.175 10H0.825ZM0.825 9.21053H10.175V2.89474H0.825V9.21053ZM4.125 2.10526H6.875V0.789474H4.125V2.10526Z" fill="#F4F4F4"/>
</svg>
