<svg width="15" height="16" viewBox="0 0 15 16" fill="none" xmlns="http://www.w3.org/2000/svg">
<path d="M0.703125 13.5255C0.503906 13.5255 0.336914 13.468 0.202148 13.3529C0.0673828 13.2379 0 13.0953 0 12.9253C0 12.7552 0.0673828 12.6138 0.202148 12.5011C0.336914 12.3884 0.503906 12.3321 0.703125 12.3321H1.96875V6.24559C1.96875 5.15824 2.35547 4.17367 3.12891 3.29186C3.90234 2.41005 4.92188 1.85644 6.1875 1.63101V1.05419C6.1875 0.749205 6.31457 0.49726 6.56871 0.298356C6.82284 0.099452 7.13143 0 7.49449 0C7.85754 0 8.16797 0.099452 8.42578 0.298356C8.68359 0.49726 8.8125 0.749205 8.8125 1.05419V1.63101C10.0781 1.85644 11.1016 2.41005 11.8828 3.29186C12.6641 4.17367 13.0547 5.15824 13.0547 6.24559V12.3321H14.2969C14.4961 12.3321 14.6631 12.3896 14.7979 12.5046C14.9326 12.6196 15 12.7622 15 12.9322C15 13.1023 14.9326 13.2437 14.7979 13.3564C14.6631 13.4691 14.4961 13.5255 14.2969 13.5255H0.703125ZM7.5 15.9123C7 15.9123 6.5625 15.7565 6.1875 15.4449C5.8125 15.1333 5.625 14.7587 5.625 14.3211H9.375C9.375 14.7587 9.19141 15.1333 8.82422 15.4449C8.45703 15.7565 8.01562 15.9123 7.5 15.9123ZM3.375 12.3321H11.6484V6.24559C11.6484 5.25107 11.2539 4.41235 10.4648 3.72945C9.67578 3.04655 8.69922 2.70509 7.53516 2.70509C6.37109 2.70509 5.38672 3.04655 4.58203 3.72945C3.77734 4.41235 3.375 5.25107 3.375 6.24559V12.3321Z" fill="#F4F4F4"/>
</svg>
