<svg width="16" height="18" viewBox="0 0 16 18" fill="none" xmlns="http://www.w3.org/2000/svg">
<path d="M1.41176 17.7778V16.5657H14.5882V17.7778H1.41176ZM1.41176 1.21212V0H14.5882V1.21212H1.41176ZM8 9.61616C8.65359 9.61616 9.20261 9.38721 9.64706 8.92929C10.0915 8.47138 10.3137 7.90573 10.3137 7.23232C10.3137 6.55892 10.0915 5.99327 9.64706 5.53535C9.20261 5.07744 8.65359 4.84849 8 4.84849C7.34641 4.84849 6.79739 5.07744 6.35294 5.53535C5.9085 5.99327 5.68627 6.55892 5.68627 7.23232C5.68627 7.90573 5.9085 8.47138 6.35294 8.92929C6.79739 9.38721 7.34641 9.61616 8 9.61616ZM1.17647 15.3535C0.862745 15.3535 0.588235 15.2323 0.352941 14.9899C0.117647 14.7475 0 14.4646 0 14.1414V3.63636C0 3.2862 0.117647 2.99663 0.352941 2.76768C0.588235 2.53872 0.862745 2.42424 1.17647 2.42424H14.8235C15.1373 2.42424 15.4118 2.54545 15.6471 2.78788C15.8824 3.0303 16 3.31313 16 3.63636V14.1414C16 14.4646 15.8824 14.7475 15.6471 14.9899C15.4118 15.2323 15.1373 15.3535 14.8235 15.3535H1.17647ZM2.90196 14.1414C3.56863 13.2929 4.35948 12.6566 5.27451 12.2323C6.18954 11.8081 7.09477 11.596 7.9902 11.596C8.88562 11.596 9.80065 11.8081 10.7353 12.2323C11.6699 12.6566 12.4575 13.2929 13.098 14.1414H14.8235V3.63636H1.17647V14.1414H2.90196ZM4.7451 14.1414H11.2941C10.8889 13.7374 10.415 13.4141 9.87255 13.1717C9.33007 12.9293 8.70588 12.8081 8 12.8081C7.29412 12.8081 6.67647 12.9293 6.14706 13.1717C5.61765 13.4141 5.15033 13.7374 4.7451 14.1414ZM8.0031 8.40404C7.68731 8.40404 7.42157 8.28956 7.20588 8.06061C6.9902 7.83165 6.88235 7.55556 6.88235 7.23232C6.88235 6.90909 6.98916 6.633 7.20279 6.40404C7.41641 6.17508 7.68111 6.06061 7.9969 6.06061C8.31269 6.06061 8.57843 6.17508 8.79412 6.40404C9.0098 6.633 9.11765 6.90909 9.11765 7.23232C9.11765 7.55556 9.01084 7.83165 8.79722 8.06061C8.5836 8.28956 8.31889 8.40404 8.0031 8.40404Z" fill="#F4F4F4"/>
</svg>
