<svg width="14" height="16" viewBox="0 0 14 16" fill="none" xmlns="http://www.w3.org/2000/svg">
<path d="M12.7574 14.61C12.5993 14.61 12.4678 14.5568 12.363 14.4505C12.2582 14.3441 12.2058 14.2124 12.2058 14.0552V1.10962H2.64459C2.4874 1.10962 2.35563 1.05614 2.24929 0.949187C2.14295 0.84222 2.08978 0.709682 2.08978 0.551573C2.08978 0.393453 2.14295 0.261994 2.24929 0.157196C2.35563 0.0523987 2.4874 0 2.64459 0H12.2058C12.5017 0 12.7606 0.110962 12.9825 0.332886C13.2045 0.55481 13.3154 0.813721 13.3154 1.10962V14.0552C13.3154 14.2124 13.262 14.3441 13.155 14.4505C13.048 14.5568 12.9155 14.61 12.7574 14.61ZM1.10962 14.5915L5.5481 12.6867L9.98658 14.5915V3.32886H1.10962V14.5915ZM0.776734 15.9415C0.591797 16.0278 0.416107 16.0186 0.249664 15.9138C0.0832215 15.809 0 15.6518 0 15.4422V3.32886C0 3.03296 0.110962 2.77405 0.332886 2.55213C0.55481 2.3302 0.813721 2.21924 1.10962 2.21924H9.98658C10.2825 2.21924 10.5445 2.3302 10.7726 2.55213C11.0006 2.77405 11.1147 3.03296 11.1147 3.32886V15.4422C11.1147 15.6518 11.0315 15.8059 10.865 15.9045C10.6986 16.0032 10.5229 16.0155 10.338 15.9415L5.5481 13.9257L0.776734 15.9415Z" fill="#F4F4F4"/>
</svg>
